<?xml version="1.0" encoding="utf-8"?>
<!-- Generator: Adobe Illustrator 14.0.0, SVG Export Plug-In . SVG Version: 6.00 Build 43363)  -->
<!DOCTYPE svg PUBLIC "-//W3C//DTD SVG 1.1//EN" "http://www.w3.org/Graphics/SVG/1.1/DTD/svg11.dtd">
<svg version="1.1" id="Calque_1" xmlns="http://www.w3.org/2000/svg" xmlns:xlink="http://www.w3.org/1999/xlink" x="0px" y="0px"
	 width="400px" height="400px" viewBox="0 0 400 400" enable-background="new 0 0 400 400" xml:space="preserve">
<g>
	<path fill="#E9D0B4" d="M142.427,254.628c0,0-12.448,11.997-7.414,16.555c5.03,4.561,12.715,1.441,14.038-2.398
		c0,0-0.647,2.398,1.268,2.398c1.91,0,5.128-2.059,3.233-7.146c-1.896-5.089-1.338-9.408-1.338-9.408H142.427z"/>
	<path fill="#E9D0B4" d="M254.907,254.628c0,0,12.449,11.997,7.42,16.555c-5.035,4.561-12.715,1.441-14.039-2.398
		c0,0,0.643,2.398-1.268,2.398s-5.133-2.059-3.238-7.146c1.896-5.089,1.338-9.408,1.338-9.408H254.907z"/>
	<g>
		<path fill="#34495D" d="M176.251,274.613c0,0,5.059,61.373,6.915,63.343c1.856,1.972,9.008,0,9.008,0v-63.343H176.251z"/>
		<polygon fill="#2D3F50" points="195.353,335.229 192.174,337.956 192.174,274.613 195.353,275.371 		"/>
	</g>
	<g>
		<path fill="#34495D" d="M222.653,274.613c0,0-5.065,61.373-6.92,63.343c-1.856,1.972-9.008,0-9.008,0v-63.343H222.653z"/>
		<polygon fill="#2D3F50" points="203.546,335.229 206.725,337.956 206.725,274.613 203.546,275.371 		"/>
	</g>
	<g>
		<polygon fill="#F49D16" points="161.109,204.703 139.456,255.482 150.319,259.298 170.225,210.305 		"/>
		<polygon fill="#E77E22" points="154.84,257.047 150.319,259.298 170.225,210.305 173.986,211.578 		"/>
	</g>
	<g>
		<polygon fill="#E77E22" points="236.946,204.695 258.585,255.47 247.722,259.287 227.825,210.3 		"/>
		<polygon fill="#F49D16" points="243.206,256.491 247.722,259.287 227.825,210.3 224.069,211.573 		"/>
	</g>
	<g>
		<path fill="#F49D16" d="M199.089,280.501c-21.638,0-41.524-11.209-41.524-11.209s1.396-48.577,1.979-59.041
			c0.587-10.461,4.679-12.705,4.679-12.705s12.641-8.223,34.866-8.719"/>
		<path fill="#E77E22" d="M199.089,280.501c21.644,0,41.529-11.209,41.529-11.209s-1.4-48.577-1.984-59.041
			c-0.586-10.461-4.678-12.705-4.678-12.705s-12.641-8.223-34.867-8.719"/>
	</g>
	<path fill="#E9D0B4" d="M246.606,84.404c-11.98-11.247-28.831-18.258-47.517-18.258c-18.682,0-35.533,7.011-47.517,18.258
		c-11.318,10.629-18.287,25.037-18.287,40.917v40.745c0,0.197,0.025,0.395,0.064,0.583c1.372,14.442,46.564,32.724,65.739,32.724
		c18.425,0,64.367-18.282,65.74-32.724c0.045-0.188,0.064-0.385,0.064-0.583v-40.745C264.894,109.44,257.929,95.033,246.606,84.404z
		"/>
	<path fill="#E9D0B4" d="M133.286,166.066L133.286,166.066c0,0.197,0.025,0.395,0.064,0.583
		c1.372,14.442,46.564,32.724,65.739,32.724c18.425,0,64.367-18.282,65.74-32.724c0.045-0.188,0.064-0.385,0.064-0.583l0,0H133.286z
		"/>
	<polygon fill="#E9D0B4" points="199.089,66.146 199.089,199.372 259.063,175.755 259.063,119.092 245.821,90.904 	"/>
	<polygon fill="#E9D0B4" points="199.084,66.146 199.089,199.372 139.11,175.819 139.11,119.092 152.357,90.904 	"/>
	<polygon fill="#D35517" points="195.353,335.424 195.353,341.112 179.317,344.158 170.61,344.158 170.61,339.79 182.979,339.79 	
		"/>
	<polygon fill="#E77E22" points="184.213,335.424 170.61,339.79 182.979,339.79 195.353,335.424 	"/>
	<polygon fill="#D35517" points="203.546,335.424 203.546,341.112 219.583,344.158 228.29,344.158 228.29,339.79 215.92,339.79 	"/>
	<polygon fill="#E77E22" points="214.691,335.424 228.29,339.79 215.92,339.79 203.546,335.424 	"/>
	<g>
		<g>
			<path fill="#675434" d="M164.299,137.44c1.332-1.363,3.179-1.907,5.022-2.16c1.061-0.145,0.608-1.751-0.443-1.607
				c-2.125,0.291-4.231,1.025-5.757,2.588C162.369,137.031,163.547,138.211,164.299,137.44L164.299,137.44z"/>
		</g>
	</g>
	<g>
		<g>
			<path fill="#675434" d="M234.446,136.262c-1.527-1.562-3.633-2.297-5.758-2.588c-1.051-0.145-1.504,1.462-0.443,1.607
				c1.842,0.253,3.689,0.797,5.021,2.16C234.021,138.21,235.198,137.031,234.446,136.262L234.446,136.262z"/>
		</g>
	</g>
	<path fill="#F6F6F6" d="M160.571,153.265c0,0,3.771-11.91,7.744-12.902c3.968-0.992,16.471,3.055,17.265,9.667
		c0.795,6.609-1.663,8.297-8.929,8.694C169.307,159.121,160.373,159.02,160.571,153.265z"/>
	<path fill="#F6F6F6" d="M237.515,153.265c0,0-3.771-11.91-7.744-12.902c-3.969-0.992-16.471,3.055-17.266,9.667
		c-0.795,6.609,1.663,8.297,8.929,8.694C228.778,159.121,237.712,159.02,237.515,153.265z"/>
	<ellipse fill="#595754" cx="224.499" cy="151.695" rx="1.975" ry="2.885"/>
	<ellipse fill="#595754" cx="173.147" cy="151.695" rx="1.974" ry="2.885"/>
	<path fill="#675434" d="M264.894,146.12l-5.83-27.028l-7.809-16.619l-51.632-5.583l-53.909,8.154l-6.604,14.047l-5.824,27.028
		c0,0,0.301-28.338,1.14-31.796c0.839-3.455,2.31-8.221,3.268-10.318c0.958-2.1-8.894-7.115-4.408-24.978
		c4.482-17.865,11.234-9.926,15.597-6.747c0,0,3.376,1.584,4.467-1.589c1.091-3.176,3.016-1.192,5.429,0.795
		c0,0,10.089-0.074,19.156-2.207c9.067-2.137,32.482-6.189,51.145,3.366c18.656,9.556,27.971,22.793,30.67,29.733
		C262.454,109.319,265.776,110.788,264.894,146.12z"/>
	<g>
		<path fill="#CA9E64" d="M186.39,180.192c-0.197,2.463,3.968,7.004,7.147,8.297c1.984,0.908,4.96,1.17,7.344,0.78
			c5.953-1.039,10.716-5.575,10.913-9.467c-5.553-0.777-11.708-0.128-17.462-0.518c-2.384-0.128-4.966-0.387-7.345,0.131
			L186.39,180.192z"/>
	</g>
	<path fill="#F49D16" d="M172.545,193.657c0,0,19.185,8.934,26.544,8.934v-3.218C199.089,199.372,187.485,199.293,172.545,193.657z"
		/>
	<path fill="#F49D16" d="M225.476,193.598c0,0-19.195,8.993-26.554,8.993v-3.218C198.921,199.372,210.536,199.231,225.476,193.598z"
		/>
	<path fill="#2D3F50" d="M176.671,279.613l15.557,3.268l3.125-0.148v-2.342c0,0-12.187-1.194-18.909-3.436L176.671,279.613z"/>
	<path fill="#2D3F50" d="M222.228,279.445l-15.557,3.268l-3.125-0.148v-2.342c0,0,12.187-1.194,18.909-3.436L222.228,279.445z"/>
</g>
</svg>
