<?xml version="1.0" encoding="utf-8"?>
<!-- Generator: Adobe Illustrator 14.0.0, SVG Export Plug-In . SVG Version: 6.00 Build 43363)  -->
<!DOCTYPE svg PUBLIC "-//W3C//DTD SVG 1.1//EN" "http://www.w3.org/Graphics/SVG/1.1/DTD/svg11.dtd">
<svg version="1.1" id="Calque_1" xmlns="http://www.w3.org/2000/svg" xmlns:xlink="http://www.w3.org/1999/xlink" x="0px" y="0px"
	 width="400px" height="400px" viewBox="0 0 400 400" enable-background="new 0 0 400 400" xml:space="preserve">
<g>
	<polygon fill="#E77E22" points="287.519,343.456 266.972,295.247 251.054,305.026 266.663,343.456 	"/>
	<polygon fill="#F49D16" points="134.914,343.456 150.526,305.035 134.615,295.26 114.064,343.456 	"/>
	<polygon fill="#E77E22" points="141.847,343.456 157.089,307.258 150.526,305.035 134.914,343.456 	"/>
	<path fill="#F49D16" d="M200.902,343.456v-75.905c-38.789,0.865-60.853,15.218-60.853,15.218s-7.141,3.915-8.165,22.174
		c-0.366,6.573-0.915,21.761-1.47,38.514H200.902z"/>
	<path fill="#E77E22" d="M271.392,343.456c-0.555-16.753-1.107-31.94-1.473-38.514c-1.027-18.259-8.168-22.174-8.168-22.174
		s-22.059-14.353-60.849-15.218v75.905H271.392z"/>
	<path fill="#E9D0B4" d="M283.833,85.305c-20.91-19.629-50.317-31.865-82.931-31.865c-32.605,0-62.014,12.236-82.929,31.865
		C98.218,103.855,86.055,129,86.055,156.716v71.112c0,0.341,0.045,0.688,0.111,1.014c2.397,25.205,81.269,57.113,114.735,57.113
		c32.157,0,112.337-31.908,114.732-57.113c0.076-0.326,0.111-0.673,0.111-1.014v-71.112C315.745,129,303.591,103.855,283.833,85.305
		z"/>
	<path fill="#E9D0B4" d="M86.055,227.828L86.055,227.828c0,0.341,0.045,0.688,0.111,1.014
		c2.397,25.205,81.269,57.113,114.735,57.113c32.157,0,112.337-31.908,114.732-57.113c0.076-0.326,0.111-0.673,0.111-1.014l0,0
		H86.055z"/>
	<polygon fill="#E9D0B4" points="200.902,53.44 200.902,285.955 305.571,244.737 305.571,145.845 282.462,96.649 	"/>
	<polygon fill="#E9D0B4" points="200.892,53.44 200.902,285.955 96.221,244.85 96.221,145.845 119.344,96.649 	"/>
	<g>
		<g>
			<path fill="#675434" d="M140.183,177.869c2.324-2.38,5.549-3.33,8.766-3.771c1.853-0.254,1.061-3.058-0.773-2.806
				c-3.71,0.509-7.386,1.791-10.051,4.52C136.814,177.154,138.87,179.213,140.183,177.869L140.183,177.869z"/>
		</g>
	</g>
	<g>
		<g>
			<path fill="#675434" d="M262.61,175.812c-2.664-2.728-6.342-4.01-10.051-4.52c-1.834-0.252-2.627,2.551-0.773,2.806
				c3.215,0.442,6.441,1.392,8.766,3.771C261.866,179.213,263.923,177.154,262.61,175.812L262.61,175.812z"/>
		</g>
	</g>
	<path fill="#F6F6F6" d="M133.674,205.484c0,0,6.582-20.785,13.517-22.517c6.927-1.731,28.744,5.333,30.134,16.872
		c1.388,11.533-2.904,14.48-15.584,15.175C148.925,215.706,133.332,215.529,133.674,205.484z"/>
	<path fill="#F6F6F6" d="M267.962,205.484c0,0-6.582-20.785-13.514-22.517c-6.926-1.731-28.749,5.333-30.132,16.872
		c-1.387,11.533,2.901,14.48,15.582,15.175C252.718,215.706,268.31,215.529,267.962,205.484z"/>
	<path fill="#595754" d="M248.692,202.748c0,2.781-1.541,5.033-3.443,5.033c-1.906,0-3.447-2.252-3.447-5.033
		c0-2.779,1.541-5.038,3.447-5.038C247.151,197.71,248.692,199.969,248.692,202.748z"/>
	<path fill="#595754" d="M159.069,202.748c0,2.781-1.541,5.033-3.442,5.033c-1.907,0-3.448-2.252-3.448-5.033
		c0-2.779,1.541-5.038,3.448-5.038C157.528,197.71,159.069,199.969,159.069,202.748z"/>
	<path fill="#675434" d="M315.745,193.017l-10.174-47.172l-13.625-29.004l-90.117-9.742l-94.082,14.23l-11.526,24.516
		l-10.166,47.172c0,0,0.526-49.459,1.992-55.494c1.464-6.029,4.03-14.347,5.702-18.007c1.67-3.666-15.523-12.417-7.694-43.593
		c7.824-31.18,19.607-17.324,27.223-11.775c0,0,5.892,2.765,7.796-2.775c1.902-5.543,5.261-2.08,9.475,1.388
		c0,0,17.608-0.13,33.433-3.851c15.824-3.73,56.689-10.803,89.262,5.875c32.561,16.676,48.814,39.78,53.527,51.892
		C311.489,128.789,317.286,131.352,315.745,193.017z"/>
	<g>
		<path fill="#CA9E64" d="M178.737,252.48c-0.345,4.3,6.927,12.221,12.474,14.479c3.462,1.586,8.656,2.043,12.818,1.363
			c10.387-1.815,18.702-9.731,19.047-16.523c-9.692-1.356-20.435-0.225-30.478-0.904c-4.161-0.226-8.668-0.675-12.82,0.23
			L178.737,252.48z"/>
	</g>
	<g>
		<path fill="#F49D16" d="M154.574,275.979c0,0,33.484,15.595,46.328,15.595v-5.618
			C200.902,285.955,180.649,285.819,154.574,275.979z"/>
		<path fill="#F49D16" d="M246.952,275.878c0,0-33.501,15.695-46.343,15.695v-5.618C200.609,285.955,220.877,285.71,246.952,275.878
			z"/>
	</g>
</g>
</svg>
