<?xml version="1.0" encoding="utf-8"?>
<!-- Generator: Adobe Illustrator 14.0.0, SVG Export Plug-In . SVG Version: 6.00 Build 43363)  -->
<!DOCTYPE svg PUBLIC "-//W3C//DTD SVG 1.1//EN" "http://www.w3.org/Graphics/SVG/1.1/DTD/svg11.dtd">
<svg version="1.1" id="Calque_1" xmlns="http://www.w3.org/2000/svg" xmlns:xlink="http://www.w3.org/1999/xlink" x="0px" y="0px"
	 width="400px" height="400px" viewBox="0 0 400 400" enable-background="new 0 0 400 400" xml:space="preserve">
<polygon fill="#ECF0F1" points="34.265,200.191 34.265,193.875 69.037,219.109 63.84,221.942 "/>
<g>
	<path fill="#78C1A6" d="M34.265,239.774l67.896,29.122l98.529-12.863l101.841,23.814l14.9-26.979l43.471-34.583l-45.124-39.607
		l-45.13,7.887c0,0-49.259-18.616-51.745-22.71c-2.486-4.094-121.711-7.136-121.711-7.136l-62.927,38.858l34.772,25.234
		L34.265,239.774z"/>
</g>
<polygon fill="#ECF0F1" points="33.815,246.052 33.815,239.811 101.712,268.933 200.24,256.069 302.082,279.885 316.981,252.904 
	360.452,218.321 360.452,222.278 318.396,256.256 302.418,284.134 199.914,260.176 101.908,273.68 "/>
<g>
	<polygon fill="#2D3F50" points="108.95,184.373 135.017,205.646 135.017,79.997 	"/>
	<polygon fill="#2DA24F" points="159.756,184.373 135.017,205.646 135.017,79.997 	"/>
</g>
<g>
	<polygon fill="#32A860" points="161.695,165.662 184.293,197.714 194.242,52.741 	"/>
	<polygon fill="#2A9A4B" points="220.25,166.792 184.293,197.714 194.242,52.741 	"/>
</g>
<g>
	<polygon fill="#78C1A6" points="134.353,187.017 162.992,222.052 175.6,63.591 	"/>
	<polygon fill="#2D3F50" points="212.456,202.989 162.992,222.052 175.6,63.591 	"/>
</g>
<g>
	<polygon fill="#2A9A4B" points="233.067,222.052 265.486,236.699 256.386,86.125 	"/>
	<polygon fill="#2DA24F" points="278.688,210.248 265.486,236.699 256.386,86.125 	"/>
</g>
<g>
	<g>
		<defs>
			<polygon id="SVGID_1_" points="173.385,218.759 143.191,235.878 143.191,168.75 168.132,156.512 			"/>
		</defs>
		<clipPath id="SVGID_2_">
			<use xlink:href="#SVGID_1_"  overflow="visible"/>
		</clipPath>
	</g>
	<g>
		<defs>
			<polygon id="SVGID_3_" points="91.324,215.962 143.191,235.905 143.191,168.775 95.925,164.763 			"/>
		</defs>
		<clipPath id="SVGID_4_">
			<use xlink:href="#SVGID_3_"  overflow="visible"/>
		</clipPath>
	</g>
	<g>
		<defs>
			<polyline id="SVGID_5_" points="86.735,165.034 111.022,140.718 158.285,144.919 151.724,179.056 			"/>
		</defs>
		<clipPath id="SVGID_6_">
			<use xlink:href="#SVGID_5_"  overflow="visible"/>
		</clipPath>
	</g>
</g>
<g>
	<polygon fill="#2A9A4B" points="83.677,222.882 106.694,241.669 106.694,130.733 	"/>
	<polygon fill="#32A860" points="128.536,222.882 106.694,241.669 106.694,130.733 	"/>
</g>
<g>
	<polygon fill="#2A9A4B" points="195.136,211.447 200.653,222.433 216.835,96.52 	"/>
	<polygon fill="#32A860" points="221.567,223.254 200.653,222.433 216.835,96.52 	"/>
	<polygon fill="#78C1A6" points="229.77,208.606 221.567,223.254 216.835,96.52 	"/>
</g>
<g>
	<polygon fill="#2D3F50" points="260.28,264.635 249.274,240.758 268.83,107.766 	"/>
	<polygon fill="#33A861" points="289.075,259.75 260.28,264.635 268.83,107.766 	"/>
	<polygon fill="#78C1A6" points="294.063,230.465 289.075,259.75 268.83,107.766 	"/>
</g>
<g>
	<polygon fill="none" stroke="#F49D16" stroke-width="1.3068" points="166.733,235.564 152.783,238.907 152.783,187.229 
		166.733,183.885 	"/>
	<line fill="none" stroke="#F49D16" stroke-width="1.3068" x1="152.783" y1="195.435" x2="166.733" y2="192.091"/>
	<line fill="none" stroke="#F49D16" stroke-width="1.3068" x1="166.733" y1="200.351" x2="152.783" y2="203.693"/>
	<line fill="none" stroke="#F49D16" stroke-width="1.3068" x1="152.783" y1="212.139" x2="166.733" y2="208.796"/>
	<line fill="none" stroke="#F49D16" stroke-width="1.3068" x1="166.733" y1="217.496" x2="152.783" y2="220.839"/>
	<line fill="none" stroke="#F49D16" stroke-width="1.3068" x1="152.783" y1="230.47" x2="166.733" y2="227.126"/>
</g>
<g>
	<g>
		<polygon fill="#E77E22" points="135.213,161.568 180.598,153.436 160.94,139.958 116.397,147.349 		"/>
		<polygon fill="#F0C40D" points="180.501,153.431 180.501,189.959 135.213,198.175 135.213,161.568 		"/>
		<polyline fill="#D35517" points="135.213,198.175 116.495,183.706 116.495,147.25 135.213,161.568 135.213,198.175 		"/>
	</g>
	<polygon fill="#ECF0F1" points="174.365,159.888 174.365,169.523 163.972,171.389 165.299,159.888 	"/>
	<polygon fill="#ECF0F1" points="151.803,162.571 152.583,173.117 143.191,173.397 142.191,165.35 	"/>
	<polygon fill="#ECF0F1" points="162.441,176.741 162.441,191.616 154.166,192.889 152.783,177.731 	"/>
	<polygon fill="#D35517" points="151.803,162.571 150.274,163.013 150.274,173.186 152.583,173.117 	"/>
	<polygon fill="#D35517" points="174.365,159.888 172.803,160.169 172.803,169.804 174.365,169.523 	"/>
	<polygon fill="#D35517" points="162.441,176.741 160.195,176.971 160.991,191.841 162.441,191.616 	"/>
</g>
<g>
	<polygon fill="#2D3F50" points="117.26,236.699 132.066,256.656 138.705,120.364 	"/>
	<polygon fill="#32A860" points="154.978,252.038 132.066,256.656 138.705,120.364 	"/>
	<polygon fill="#78C1A6" points="158.291,236.699 154.978,252.038 138.705,120.364 	"/>
</g>
<polygon fill="#E77E22" points="133.86,268.458 133.86,313.204 258.014,323.107 258.014,268.458 "/>
<g>
	<rect x="18.642" y="282.263" fill="none" width="356.052" height="41.448"/>
	<path fill="#FFFFFF" d="M152.623,305.119v-22.868h3.267v20.418h5.717v2.45H152.623z"/>
	<path fill="#FFFFFF" d="M161.696,305.119l4.9-22.868h3.267l4.9,22.868h-3.267l-1.225-5.717h-4.083l-1.225,5.717H161.696z
		 M166.596,296.952h3.267l-1.633-9.801L166.596,296.952z"/>
	<path fill="#FFFFFF" d="M181.91,305.119v-22.868h8.984v2.45h-5.717v7.351h4.083v2.45h-4.083v10.617H181.91z"/>
	<path fill="#FFFFFF" d="M198.283,305.349c-1.148,0-2.133-0.174-2.954-0.523c-0.821-0.349-1.474-0.858-1.959-1.531
		c-0.485-0.672-0.838-1.461-1.059-2.367c-0.222-0.906-0.332-1.959-0.332-3.158v-8.295c0-1.199,0.11-2.246,0.332-3.14
		c0.221-0.893,0.574-1.669,1.059-2.329c0.485-0.659,1.138-1.154,1.959-1.486c0.821-0.332,1.806-0.498,2.954-0.498
		c2.229,0,3.837,0.639,4.824,1.915c0.987,1.275,1.48,3.122,1.48,5.538v8.295c0,1.183-0.113,2.227-0.338,3.133
		s-0.581,1.697-1.065,2.374c-0.485,0.676-1.138,1.191-1.959,1.544C200.403,305.172,199.423,305.349,198.283,305.349z
		 M195.903,301.636c0.438,0.688,1.231,1.033,2.38,1.033s1.942-0.345,2.38-1.033c0.438-0.689,0.657-1.706,0.657-3.051v-9.928
		c0-1.327-0.217-2.318-0.651-2.974c-0.434-0.655-1.229-0.982-2.386-0.982c-1.157,0-1.953,0.327-2.386,0.982
		c-0.434,0.655-0.651,1.646-0.651,2.974v9.928C195.246,299.93,195.464,300.946,195.903,301.636z"/>
	<path fill="#FFFFFF" d="M207.445,305.119v-22.868h4.084c2.433,0,4.266,0.472,5.5,1.416c1.233,0.944,1.851,2.515,1.851,4.709
		c0,1.361-0.243,2.501-0.728,3.42s-1.195,1.549-2.131,1.889l3.675,11.435h-3.241l-3.292-10.617h-2.45v10.617H207.445z
		 M210.712,292.052h0.817c1.361,0,2.382-0.287,3.063-0.861s1.021-1.513,1.021-2.814s-0.34-2.239-1.021-2.813
		s-1.702-0.861-3.063-0.861h-0.817V292.052z"/>
	<path fill="#FFFFFF" d="M221.585,305.119v-22.868h8.984v2.45h-5.717v7.351h4.083v2.45h-4.083v8.167h5.717v2.45H221.585z
		 M221.994,280.72l2.45-4.9h3.267l2.45,4.9h-2.45l-1.634-3.268l-1.633,3.268H221.994z"/>
	<path fill="#FFFFFF" d="M235.011,305.119V285.16h-4.084v-2.909h11.435v2.909h-4.084v19.959H235.011z"/>
</g>
</svg>
