<?xml version="1.0" encoding="utf-8"?>
<!-- Generator: Adobe Illustrator 14.0.0, SVG Export Plug-In . SVG Version: 6.00 Build 43363)  -->
<!DOCTYPE svg PUBLIC "-//W3C//DTD SVG 1.1//EN" "http://www.w3.org/Graphics/SVG/1.1/DTD/svg11.dtd">
<svg version="1.1" id="Calque_1" xmlns="http://www.w3.org/2000/svg" xmlns:xlink="http://www.w3.org/1999/xlink" x="0px" y="0px"
	 width="400px" height="400px" viewBox="0 0 400 400" enable-background="new 0 0 400 400" xml:space="preserve">
<g>
	<path fill="#BDC3C7" d="M218.559,72.461c-2.287-2.961-5.765-4.862-9.674-4.862c-0.418,0-0.829,0.022-1.237,0.065
		c-2.167-5.007-6.958-8.49-12.527-8.49c-1.949,0-3.803,0.43-5.483,1.199c-3.341-4.118-8.308-6.731-13.854-6.731
		c-10.061,0-18.216,8.584-18.216,19.175c0,0.084,0.004,0.167,0.007,0.25c-4.955,1.066-8.669,5.466-8.669,10.737
		c0,6.067,4.917,10.987,10.984,10.987c1.797,0,3.489-0.439,4.987-1.204c2.453,2.381,5.799,3.849,9.488,3.849
		c4.136,0,7.836-1.841,10.338-4.748c2.111,1.209,4.557,1.903,7.166,1.903c5.064,0,9.518-2.606,12.099-6.55
		c1.899,1.72,4.406,2.777,7.171,2.777c5.9,0,10.683-4.783,10.683-10.686C221.821,77.12,220.568,74.403,218.559,72.461z"/>
	<path fill="#ECF0F1" d="M220.91,69.815c-2.288-2.958-5.768-4.86-9.674-4.86c-0.418,0-0.832,0.023-1.238,0.065
		c-2.168-5.005-6.96-8.488-12.525-8.488c-1.95,0-3.806,0.429-5.486,1.199c-3.341-4.119-8.306-6.733-13.854-6.733
		c-10.058,0-18.213,8.585-18.213,19.176c0,0.083,0.004,0.167,0.004,0.25c-4.954,1.063-8.669,5.463-8.669,10.737
		c0,6.067,4.919,10.987,10.987,10.987c1.797,0,3.486-0.442,4.984-1.207c2.455,2.384,5.799,3.852,9.492,3.852
		c4.133,0,7.836-1.844,10.333-4.75c2.114,1.209,4.56,1.903,7.166,1.903c5.067,0,9.52-2.606,12.103-6.549
		c1.895,1.719,4.405,2.778,7.167,2.778c5.9,0,10.686-4.784,10.686-10.686C224.172,74.476,222.918,71.759,220.91,69.815z"/>
	<path fill="#BDC3C7" d="M333.631,97.694c0-7.651-6.205-13.855-13.857-13.855c-0.626,0-1.24,0.046-1.844,0.126
		c-0.973-5.764-5.972-10.157-12.01-10.157c-3.273,0-6.233,1.295-8.427,3.391c-4.429-4.607-11.007-7.536-18.365-7.536
		c-12.428,0-22.659,8.339-24.001,19.062c-0.9-0.183-1.83-0.279-2.785-0.279c-7.752,0-14.037,6.285-14.037,14.038
		c0,7.751,6.285,14.035,14.037,14.035c1.555,0,3.045-0.255,4.441-0.721c3.158,8.25,11.146,14.113,20.508,14.113
		c7.029,0,13.282-3.308,17.301-8.447c2.879,2.938,6.889,4.761,11.328,4.761c8.407,0,15.284-6.545,15.823-14.817
		C328.462,110.451,333.631,104.677,333.631,97.694z"/>
	<path fill="#ECF0F1" d="M334.27,93.516c0-7.652-6.201-13.855-13.854-13.855c-0.627,0-1.241,0.045-1.848,0.125
		c-0.969-5.762-5.972-10.157-12.01-10.157c-3.27,0-6.233,1.295-8.423,3.392c-4.432-4.607-11.008-7.534-18.365-7.534
		c-12.431,0-22.663,8.338-24.001,19.059c-0.901-0.181-1.833-0.277-2.788-0.277c-7.75,0-14.035,6.285-14.035,14.036
		c0,7.753,6.285,14.036,14.035,14.036c1.554,0,3.046-0.257,4.443-0.721c3.155,8.251,11.145,14.112,20.506,14.112
		c7.031,0,13.282-3.308,17.301-8.446c2.878,2.937,6.891,4.763,11.327,4.763c8.409,0,15.286-6.547,15.823-14.819
		C329.102,106.273,334.27,100.499,334.27,93.516z"/>
	<polygon fill="#ECF0F1" points="27.157,297.598 27.157,304.65 188.871,334.415 269.156,330.891 322.419,316.399 372.843,253.346 
		372.843,243.091 316.153,307.104 268.766,319.638 188.477,321.989 	"/>
	<polyline fill="#E77E22" points="27.157,297.598 190.09,326.301 268.791,322.793 321.731,306.49 372.843,243.091 340.588,228.674 
		202.871,228.674 164.641,209.169 46.271,237.181 53.64,261.393 27.157,297.598 	"/>
	<polyline fill="#D35517" points="106.761,237.163 116.935,220.458 114.676,220.864 102.294,237.865 	"/>
	<polygon fill="#CA9E64" points="101.843,196.627 102.294,237.865 105.032,238.447 103.745,196.627 	"/>
	<polygon fill="#B07F48" points="106.761,237.163 104.994,238.447 103.438,199.502 104.994,197.526 	"/>
	<g>
		<polygon fill="#2A9A4B" points="97.954,205.061 97.954,181.582 109.536,181.582 112.109,205.061 		"/>
		<polygon fill="#78C1A6" points="124.333,205.061 119.828,181.582 109.536,181.582 112.109,205.061 		"/>
		<polygon fill="#53B06B" points="87.018,181.582 84.444,205.061 97.954,205.061 97.954,181.582 		"/>
		<polygon fill="#78C1A6" points="103.745,160.995 87.018,181.582 97.954,181.582 		"/>
		<polygon fill="#32A860" points="109.536,181.582 97.954,181.582 103.745,160.995 		"/>
		<polygon fill="#53B06B" points="119.828,181.582 103.745,160.995 109.536,181.582 		"/>
		<polygon fill="#78C1A6" points="84.444,205.061 97.954,214.716 97.954,214.716 97.954,205.061 		"/>
		<rect x="97.954" y="205.061" fill="#32A860" width="14.156" height="9.655"/>
		<polygon fill="#53B06B" points="124.333,205.061 112.109,214.716 112.109,214.716 112.109,205.061 		"/>
	</g>
	<polygon fill="#D35517" points="142.871,245.764 153.706,216.537 150.417,215.829 137.221,246.058 	"/>
	<polygon fill="#CA9E64" points="137.443,223.554 137.221,246.058 140.596,246.955 140.254,224.986 	"/>
	<polygon fill="#B07F48" points="142.871,245.764 140.596,246.955 140.254,224.986 142.871,223.554 	"/>
	<g>
		<rect x="130.212" y="185.013" fill="#2A9A4B" width="16.855" height="33.726"/>
		<polygon fill="#53B06B" points="130.212,218.739 116.935,216.07 116.935,186.559 130.212,185.013 		"/>
		<polygon fill="#32A860" points="147.067,218.739 160.345,216.07 160.345,186.559 147.067,185.013 		"/>
		<polygon fill="#32A860" points="130.212,185.013 138.64,166.747 147.067,185.013 		"/>
		<polygon fill="#53B06B" points="160.345,186.559 138.64,166.747 147.067,185.013 		"/>
		<polygon fill="#78C1A6" points="130.212,185.013 138.64,166.747 116.935,186.559 		"/>
		<rect x="130.212" y="218.739" fill="#32A860" width="16.855" height="7.769"/>
		<polygon fill="#78C1A6" points="116.935,215.688 130.212,226.508 130.212,218.739 		"/>
		<polygon fill="#78C1A6" points="147.067,226.508 160.345,215.688 147.067,218.739 		"/>
	</g>
	<polyline fill="#D35517" points="224.986,283.919 238.305,275.176 251.563,246.865 220.502,257.099 167.732,280.093 
		224.986,283.919 	"/>
	<polyline fill="#53B06B" points="187.041,290.383 224.986,284.835 238.305,218.901 212.672,154.493 174.391,222.438 
		187.041,290.383 	"/>
	<g>
		<defs>
			<polyline id="SVGID_1_" points="187.041,290.383 174.491,222.995 212.672,155.967 211.842,155.967 212.672,154.493 
				238.305,218.901 224.986,284.835 187.041,290.383 			"/>
		</defs>
		<clipPath id="SVGID_2_">
			<use xlink:href="#SVGID_1_"  overflow="visible"/>
		</clipPath>
	</g>
	<path fill="#ECF0F1" d="M198.357,255.19c0.832-1.06,19.807-2.915,20.973-2.384c1.167,0.53-4.527,33.652-4.527,33.652l-12.751,1.728
		C202.052,288.187,197.525,256.251,198.357,255.19L198.357,255.19z"/>
	<path fill="#2D3F50" d="M214.803,286.459c0,0,5.739-33.533,4.527-33.652c-1.213-0.12-1.776-0.095-1.776-0.095l-4.144,33.936
		L214.803,286.459L214.803,286.459z"/>
	<polyline fill="#2A9A4B" points="167.732,281.33 187.041,290.383 174.391,223.176 212.672,155.967 194.363,155.967 155.079,219.64 
		167.732,281.33 	"/>
	<g>
		<g>
			<defs>
				<polyline id="SVGID_3_" points="187.041,290.383 167.732,281.33 155.079,219.64 194.363,155.967 212.672,155.967 
					174.491,222.995 174.391,223.176 187.041,290.383 				"/>
			</defs>
			<use xlink:href="#SVGID_3_"  overflow="visible" fill="#78C1A6"/>
			<clipPath id="SVGID_4_">
				<use xlink:href="#SVGID_3_"  overflow="visible"/>
			</clipPath>
		</g>
	</g>
	<polygon fill="#2D3F50" points="150.417,218.999 174.391,222.486 212.672,155.688 238.305,221.242 240.298,221.242 213.41,153.224 
		192.366,155.068 150.417,218.999 	"/>
	<polygon fill="#D35517" points="167.732,280.586 165.651,280.586 186.538,293.882 227.818,286.941 238.305,275.251 
		224.986,283.979 187.041,290.786 167.732,280.586 	"/>
	<polygon fill="#ECF0F1" points="202.354,242.762 188.371,244.468 186.538,227.179 203.018,227.179 202.354,242.762 	"/>
	<polygon fill="#2D3F50" points="202.354,242.776 203.018,227.16 200.674,227.206 200.424,243.013 202.354,242.776 	"/>
	<polygon fill="#32A860" points="219.487,284.966 225.154,283.919 237.963,220.696 226.368,190.764 	"/>
	<polygon fill="#ECF0F1" points="225.362,240.195 213.182,241.159 214.255,227.42 227.818,227.556 225.362,240.195 	"/>
	<polygon fill="#2D3F50" points="225.362,240.195 227.818,227.556 226.042,227.537 224.274,240.274 225.362,240.195 	"/>
	<polygon fill="#BDC3C7" points="226.042,227.537 224.274,240.274 222.743,240.397 223.684,227.5 	"/>
	<path fill="#78C1A6" d="M252.955,261.734c0.527-1.163,1.332-2.08,2.291-2.608c0.342-0.189,0.705-0.333,1.086-0.413
		c1.04-2.81,3.228-4.743,5.755-4.743c1.492,0,2.865,0.677,3.954,1.807c0.647-0.955,1.608-1.563,2.682-1.563
		c1.953,0,3.537,2.005,3.537,4.479c0,0.125-0.006,0.247-0.013,0.367c0.033,0.026,0.069,0.05,0.104,0.075
		c0.146-0.03,0.29-0.05,0.442-0.05c1.761,0,3.188,2.134,3.188,4.768c0,1.531-0.484,2.892-1.235,3.762
		c-0.346,0.403-0.748,0.699-1.187,0.861h-1.536h-12.469h-5.739c-0.838-1.022-1.362-2.477-1.362-4.102
		C252.453,263.421,252.635,262.52,252.955,261.734z"/>
	<path fill="#228943" d="M252.065,262.83c0.528-1.162,1.332-2.079,2.289-2.606c0.343-0.191,0.708-0.335,1.086-0.417
		c1.041-2.808,3.229-4.741,5.758-4.741c1.492,0,2.865,0.677,3.952,1.808c0.649-0.955,1.61-1.563,2.684-1.563
		c1.953,0,3.537,2.006,3.537,4.479c0,0.125-0.007,0.247-0.013,0.368c0.032,0.027,0.068,0.049,0.102,0.074
		c0.146-0.028,0.292-0.052,0.442-0.052c1.763,0,3.189,2.136,3.189,4.769c0,1.532-0.485,2.893-1.234,3.765
		c-0.348,0.401-0.75,0.697-1.188,0.86h-1.535h-12.468h-5.74c-0.838-1.021-1.363-2.479-1.363-4.103
		C251.563,264.515,251.743,263.617,252.065,262.83z"/>
	<path fill="#D35517" d="M295.592,287.23c0,0,6.917-6.796,3.585-11.225c-3.331-4.426-8.143-4.275-11.101-2.197
		c-2.965,2.078-31.297,13.735-31.297,13.735L295.592,287.23"/>
	<path fill="#D35517" d="M286.112,275.209c0,0,4.408-11.265,7.121-11.431c0,0,10.38-4.914,11.125,0.392c0,0,4.14-1.288,6.38,1.131
		c0.689,0.747,0.609,2.497,0.609,2.497s2.362-0.059,3.257,1.245c1.97,2.863-2.86,6.166-2.86,6.166"/>
	<path fill="#78C1A6" d="M313.286,271.852c-0.223-1.528-1.192-2.807-2.615-3.21c-0.256-0.073-0.515-0.114-0.771-0.125
		c-0.031-0.017-0.064-0.03-0.098-0.046c0.051-0.268,0.082-0.542,0.082-0.822c0-2.588-2.234-4.687-4.992-4.687
		c-0.235,0-0.463,0.021-0.687,0.051c-1.568-1.445-3.813-2.35-6.307-2.35c-4.531,0-8.238,2.981-8.552,6.756
		c-0.18,0.121-0.353,0.247-0.521,0.379c-0.88,0.689-1.588,1.537-2.058,2.49c-0.222,0.575-0.35,1.198-0.35,1.854
		c0,1.152,0.384,2.212,1.021,3.066h8.093h9.755h0.845h6.185c0.26-0.399,0.695-0.848,0.834-1.34
		C313.344,273.183,313.38,272.496,313.286,271.852z"/>
	<path fill="#269147" d="M311.958,272.959c-0.222-1.528-1.189-2.809-2.614-3.212c-0.256-0.073-0.514-0.113-0.771-0.123
		c-0.031-0.017-0.067-0.03-0.099-0.048c0.052-0.266,0.08-0.54,0.08-0.82c0-2.588-2.234-4.687-4.992-4.687
		c-0.232,0-0.461,0.021-0.687,0.049c-1.564-1.443-3.811-2.348-6.305-2.348c-4.53,0-8.236,2.979-8.551,6.756
		c-0.181,0.119-0.353,0.247-0.521,0.378c-0.883,0.689-1.588,1.536-2.058,2.49c-0.224,0.576-0.349,1.199-0.349,1.854
		c0,1.153,0.382,2.213,1.021,3.066h8.091h9.753h0.848h6.407c0.26-0.398,0.473-0.847,0.61-1.339
		C312.017,274.291,312.053,273.602,311.958,272.959z"/>
	<path fill="#78C1A6" d="M296.38,278.027c-1.021-1.799-2.569-3.218-4.418-4.035c-0.665-0.293-1.364-0.517-2.094-0.64
		c-2.008-4.345-6.225-7.34-11.104-7.34c-2.881,0-5.522,1.049-7.623,2.798c-1.253-1.478-3.103-2.419-5.175-2.419
		c-3.768,0-6.822,3.104-6.822,6.931c0,0.192,0.01,0.38,0.025,0.57c-0.064,0.038-0.134,0.073-0.198,0.113
		c-0.28-0.046-0.563-0.079-0.852-0.079c-3.399,0-6.152,3.305-6.152,7.378c0,2.371,0.937,4.476,2.384,5.824
		c0.666,0.621,1.442,1.078,2.286,1.331h2.962h24.05h11.07c1.613-1.58,2.63-3.835,2.63-6.344
		C297.35,280.636,296.998,279.245,296.38,278.027z"/>
	<path fill="#269147" d="M294.006,280.505c-1.021-1.8-2.569-3.219-4.418-4.035c-0.663-0.294-1.362-0.517-2.094-0.642
		c-2.009-4.345-6.225-7.338-11.104-7.338c-2.88,0-5.524,1.047-7.622,2.797c-1.252-1.479-3.104-2.419-5.174-2.419
		c-3.769,0-6.826,3.104-6.826,6.93c0,0.192,0.014,0.381,0.03,0.57c-0.066,0.039-0.136,0.073-0.2,0.113
		c-0.278-0.046-0.563-0.079-0.852-0.079c-3.399,0-6.152,3.305-6.152,7.38c0,2.371,0.936,4.473,2.385,5.822
		c0.665,0.622,1.441,1.082,2.287,1.333h2.96h24.051h11.069c1.614-1.581,2.631-3.836,2.631-6.346
		C294.977,283.112,294.624,281.723,294.006,280.505z"/>
	<path fill="#F0C40D" d="M214.921,285.785c0,0,29.512,9.152,39.058,15.052c10.423,6.442,37.277,15.038,37.277,15.038l-22.465,6.918
		l-20.094,0.895c0,0-24.667-20.793-28.198-24.023c-3.53-3.231-18.447-11.478-18.447-11.478L214.921,285.785z"/>
	<polygon fill="#BF392A" points="205.944,290.383 221.7,287.969 214.921,285.785 202.052,288.187 	"/>
</g>
</svg>
