<?xml version="1.0" encoding="utf-8"?>
<!-- Generator: Adobe Illustrator 14.0.0, SVG Export Plug-In . SVG Version: 6.00 Build 43363)  -->
<!DOCTYPE svg PUBLIC "-//W3C//DTD SVG 1.1//EN" "http://www.w3.org/Graphics/SVG/1.1/DTD/svg11.dtd">
<svg version="1.1" id="Calque_1" xmlns="http://www.w3.org/2000/svg" xmlns:xlink="http://www.w3.org/1999/xlink" x="0px" y="0px"
	 width="212.6px" height="212.6px" viewBox="0 0 212.6 212.6" enable-background="new 0 0 212.6 212.6" xml:space="preserve">
<g>
	<path fill="#3E3D40" d="M33.7,193.3c-1.9,2-2.5,3.3-4.801,3.5c-6.3,0.5-7.6-10.3-2.3-11.5C31.2,184.2,34.4,188.2,33.7,193.3z"/>
	<path fill="#3E3D40" d="M189.2,193.3c-1.9,2-2.5,3.3-4.801,3.5c-6.3,0.5-7.6-10.3-2.3-11.5C186.7,184.2,189.9,188.2,189.2,193.3z"
		/>
	<path fill="#3E3D40" d="M51.075,141.848c0.069-1.584,18.131-24.677,18.131-24.677S60.8,102.5,57.6,94.3
		c-5.1-12.1-8.2-25.4-9.399-41.5C46.7,32.1,49.8-2.7,80.3,2c18.8,3.1,32.1,33.6,30.9,55.5C110,83.4,94.134,101.867,83.134,117.467
		C103,147.516,153.064,142,159.364,106c1.2-7,0.753-20.617,0.753-20.617s2.267,0.833,5.873,4.333
		c3.977,4.625,2.676,13.676,2.017,19.202C164.425,132.175,141.3,149.8,114.7,147.1c-16.4-1.6-28.301-11.05-39.5-21.5
		c-6.957,6.462-16.224,21.832-17.224,21.915S51.006,143.432,51.075,141.848z M100.037,40.3c-1.601-9-11.437-24.807-19.737-26.807
		C64.401,10.094,61.2,25.9,60,37.6c-2.7,28.2,7.083,54.834,16.967,71.034C86.8,96.3,105.137,67.3,100.037,40.3z"/>
	<g>
		<path fill="#3E3D40" d="M55.4,207.6H53.2L53.1,207.7c-0.1,0.1-0.2,0.199-0.8,0.199s-0.7-0.1-0.7-0.1s-0.1-0.2-0.1-0.7
			s0.1-0.7,0.1-0.8l0.101-0.1V206.1c0-1.1-0.101-2.899-0.301-5.399c-0.199-2.5-0.3-4.2-0.3-5.101c0-0.899,0-1.8,0.101-2.6V192.9
			L51.1,192.7C51.2,191.9,51.2,191.3,51.2,190.9c0-0.5-0.101-1.699-0.2-3.8c-0.2-2-0.2-6.899-0.2-14.5c0-0.8-0.5-1.2-1.3-1.2
			c-0.9,0-1,0.7-1,0.9L49,193l0.5,14l-0.3,2.3c0,0.4,0.199,0.7,0.5,1c0.3,0.3,0.6,0.4,0.899,0.4s0.601-0.101,1-0.4
			c0.3-0.2,0.4-0.2,0.5-0.2H53.7c0.5,0,0.8,0,1-0.1c0.5,0.2,0.6,0.2,0.8,0.2c0.3,0,1-0.101,1-1.301
			C56.2,208.2,55.9,207.9,55.4,207.6z"/>
		<path fill="#3E3D40" d="M68,162.9H67.9L67.8,163c-0.1,0.1-0.8,0.6-3.2,2.5c-3.1,2.399-3.1,2.6-3.1,2.8c0,0.3,0.1,1.1,1.2,1.1h0.1
			l0.1-0.1c2.4-2.1,4.5-3.5,6.101-4.2l0.2-0.1v-0.2c0.1-0.5,0.199-0.8,0.199-0.8C69.4,163.6,69.2,162.9,68,162.9z"/>
		<path fill="#3E3D40" d="M65.6,207.6L65.6,207.6L63,207.7V207.6c0-0.7-0.101-1.2-0.3-1.5V196.2L62.9,195.9L62.5,191.7
			c0-0.5,0.8-0.601,1.5-0.601h1.2c0.3,0,1.1-0.1,1.1-1.3c0-0.3-0.1-0.6-0.4-0.8c-0.3-0.2-0.6-0.4-0.899-0.4l-2.5,0.5l0.2-6.1
			l-0.4-8.4c0-0.2,0.5-0.2,0.7-0.2L64.4,174.5c1.801,0,2.101-0.7,2.101-1.3c0-0.301-0.101-0.601-0.2-0.801c-0.2-0.3-0.6-0.5-1.5-0.5
			l-0.2-0.199l-3.8,0.5l-1,1.6v0.1c0,0.601,0.1,1.4,0.3,2.601c0.2,1.1,0.3,2,0.3,2.6L60.2,189l0.3,10.6l-0.2,5.101
			c0,0.8,0.1,1.6,0.2,2.199l-0.5,1.9c0,0.3,0.1,0.7,0.399,1c0.2,0.2,0.7,0.5,2.801,0.5H64.4c0.7,0,1.4-0.1,2.101-0.2
			c0.8-0.2,1.399-0.5,1.7-1.1v-0.2C68.3,207.7,66.8,207.6,65.6,207.6z"/>
		<path fill="#3E3D40" d="M85.1,170.6c-1.1,0-1.399,0.5-1.6,0.9v0.1v0.101c0.1,0.699,0.2,2,0.2,3.899L83.6,176l-0.1,0.2l0.2,0.199
			c0,0,0,0.101,0,0.4l-0.101,1.9L83.7,186.4L83.5,203.7c0,0.699,0,1.199-0.101,1.6c-0.199-0.3-0.3-0.7-0.3-1.3
			c-0.1-1-0.3-1.601-0.5-2c0-0.8-0.3-2.101-0.8-3.9c-0.2-0.899-0.4-1.6-0.6-2.2c-0.101-0.6-0.5-1.8-1-3.6s-1-3.5-1.4-5
			s-0.7-2.7-0.9-3.6c-0.199-0.9-0.3-1.9-0.5-3c-0.1-1.2-0.3-2-0.399-2.601c-0.2-0.5-0.4-1.1-0.7-1.8c-0.3-0.6-0.5-1.2-0.6-1.7
			c-0.101-0.5-0.2-0.899-0.2-1.3c0-0.5-0.2-1-0.5-1.2c-0.601-0.5-1.601-0.5-2.2-0.1c-0.3,0.2-0.5,0.6-0.5,1.1v1l-0.4,9.4v6.5
			l0.601,17.3c0,1.4-0.101,1.8-0.101,1.9v0.1L72.7,210h1.5l0.5-0.601v-0.1c0-1.6-0.101-4-0.301-7.1c-0.199-3.101-0.3-5.5-0.3-7
			V181.6c0-1.5,0.101-2.6,0.3-3.3v-0.1V178.1c0-0.1-0.1-0.3-0.1-0.7c0.1,0.4,0.2,0.9,0.3,1.301l0.4,1.6c0.1,0.5,0.3,1.3,0.5,2.4
			L75.4,183.1l0.2,0.2c0.2,0.2,0.3,0.6,0.4,1.2c0,0.3,0,0.6,0.1,0.699c0.8,4.7,2.9,12.2,6.101,22.4c0,0.1,0.1,0.4,0.199,0.9
			c0.2,1.399,0.801,2.199,1.5,2.199c0.601,0,1.601-0.199,1.601-1.8l-0.101-1.8c0.301-0.8,0.5-2.2,0.5-4.1l-0.1-1.801V195l0.1-0.2
			v-0.101c-0.1-0.6-0.1-1-0.1-1.3l0.1-15.6c0.101-0.3,0.2-0.9,0.2-1.601V174.5c0-0.601,0.101-1.101,0.3-1.5v-0.2
			C86.3,170.9,85.7,170.6,85.1,170.6z"/>
		<path fill="#3E3D40" d="M102.6,194.9c-0.3-0.5-0.399-1.1-0.399-1.699c0-0.7,0-1.601,0.1-2.601v-0.1V190.4
			c-0.2-0.399-0.3-1.199-0.4-2.3c-0.1-1.1-0.3-3.399-0.6-6.899c-0.1-1.101-0.2-2.301-0.3-3.7c-0.101-1.3-0.2-2.4-0.4-3.3
			c-0.2-1.2-0.399-1.601-0.5-1.801c-0.2-0.3-0.7-0.5-1.3-0.5c-0.5,0-1,0.4-1.8,3.101c-0.2,0.8-0.4,1.5-0.601,2.1
			c-0.1,0.601-0.399,1.5-0.6,2.7c-0.3,1.2-0.8,4-1.5,8.4c-0.7,4.3-1.3,7.199-1.6,8.399c-0.301,1.3-0.7,3.4-1.2,6.3
			c-0.5,2.801-0.9,4.601-1.4,5.301L90,208.4l0.1,0.2c0.3,0.5,0.9,0.8,1.8,0.8h0.2L92.2,209.2C92.4,208.9,92.6,208.4,93,206.4
			c0.2-1.399,0.5-2.699,0.7-3.899c0.3-1.4,0.6-1.5,0.5-1.5c0.8,0,2.1,0.2,3.8,0.5c2.2,0.399,2.3,0.8,2.3,0.8v5l0.1,0.9
			c0,0.1,0,0.3-0.1,0.399v0.2c0,0.3,0.1,0.6,0.4,0.9c0.3,0.199,0.6,0.3,1,0.3c0.399,0,0.8-0.101,1.1-0.4c0.2-0.2,0.2-0.5,0.2-1
			l-0.601-13.5L102.6,194.9z M98.4,178.1c0-0.1,0.101-0.3,0.2-0.7c1.3,7.9,1.9,15.301,1.9,22.101v0.1l-0.4-0.1H100
			c-0.101,0-0.3,0.1-0.8,0.1c-1.801,0-3.4-0.2-4.7-0.6l0,0c0-0.8,0.2-2.101,0.7-3.7c0.199-0.7,0.399-1.6,0.6-2.5s0.5-3,1-6.2
			s0.8-5.3,1.1-6.3c0.301-1.3,0.5-1.5,0.5-1.5l0.2-0.2L98.4,178.1z"/>
		<path fill="#3E3D40" d="M120.9,171.4L120.9,171.4l-4.6,0.5c-0.5,0-0.9,0-1.1-0.1H115l-0.601,0.6v0.101c0,0.899,0.9,1.3,2.601,1.3
			l0,0l3-0.2c-0.101,1.101-0.3,3.101-0.7,6c-0.4,2.5-1.1,7.8-2.2,15.601c-0.2,1-0.399,2.399-0.6,4.399c-0.2,1.9-0.5,3.7-0.8,5.3
			c-0.301,1.601-0.801,3-1.5,4.2L114.1,209.2l0.101,0.199c0.3,0.7,0.699,0.9,1.1,0.9l0,0l6-0.2l0.7-0.6V209.4
			c0-0.899-0.8-1.3-2.4-1.3l0,0l-2.8,0.2c0.1-0.4,0.2-0.9,0.5-1.5c0.4-0.9,0.6-1.5,0.6-1.9c0.5-3.3,1.2-8,2-14.1
			c0.801-6.1,1.2-9.6,1.4-10.5c0.1-0.9,0.3-2.2,0.4-3.9c0.1-1.699,0.3-2.899,0.699-3.6v-0.1C122.1,171.8,121.7,171.4,120.9,171.4z"
			/>
		<path fill="#3E3D40" d="M132.1,207.2L132.1,207.2l-1.399,0.1v-2.2c0-3.2-0.2-8-0.601-14.3c-0.399-6.3-0.6-10.5-0.6-12.6
			c0-2.601,0.1-3.5,0.2-3.801c0.1-0.399,0.3-0.5,0.699-0.5h1.2c0.3,0,0.9-0.1,0.9-1.199c0-0.4-0.2-1.2-1.7-1.2c-0.5,0-1.5,0.1-3,0.5
			c-1.7,0.3-2.5,0.8-2.5,1.5c0,1,0.7,1,1,1l1.3-0.3c0,0.399,0.101,1.1,0.101,2.5v5.8c0,1.7,0.199,4.5,0.3,8.5
			c0.2,3.899,0.3,6.6,0.3,7.899c0,1.4,0.1,2.7,0.2,4.101c0.1,1.399,0.1,2.5,0.1,3.5c0,1.1-0.5,1.1-0.7,1.1h-1.1
			c-1.2,0-1.5,0.5-1.5,0.9v0.1c0.3,0.7,1.2,1,2.9,1.101c0.3,0.3,0.8,0.399,1.6,0.399h0.1L130,210c0.3-0.3,0.6-0.5,0.8-0.5l1.7,0.3
			l1.1-0.8v-0.2C133.8,207.7,133.2,207.2,132.1,207.2z"/>
		<path fill="#3E3D40" d="M150.7,170.6c-1.101,0-1.4,0.5-1.601,0.9v0.1v0.101c0.101,0.699,0.2,2,0.2,3.899l-0.1,0.4l-0.101,0.2
			l0.2,0.199c0,0,0,0.101,0,0.4l-0.1,1.9l0.1,7.699l-0.2,17.301c0,0.699,0,1.199-0.1,1.6c-0.2-0.3-0.3-0.7-0.3-1.3
			c-0.101-1-0.301-1.601-0.5-2c0-0.8-0.301-2.101-0.801-3.9c-0.199-0.899-0.399-1.6-0.6-2.2c-0.101-0.6-0.5-1.8-1-3.6s-1-3.5-1.4-5
			c-0.399-1.5-0.699-2.7-0.899-3.6c-0.2-0.9-0.3-1.9-0.5-3c-0.101-1.2-0.3-2-0.4-2.601c-0.2-0.5-0.399-1.1-0.7-1.8
			c-0.3-0.6-0.5-1.2-0.6-1.7s-0.2-0.899-0.2-1.3c0-0.5-0.2-1-0.5-1.2c-0.6-0.5-1.6-0.5-2.2-0.1c-0.3,0.2-0.5,0.6-0.5,1.1v1
			l-0.399,9.4v6.5l0.6,17.3c0,1.4-0.1,1.8-0.1,1.9v0.1l0.3,0.7h1.5l0.5-0.601v-0.1c0-1.6-0.1-4-0.3-7.1c-0.2-3.101-0.3-5.5-0.3-7
			V181.6c0-1.5,0.1-2.6,0.3-3.3v-0.1V178.1c0-0.1-0.101-0.3-0.101-0.7c0.101,0.4,0.2,0.9,0.301,1.301l0.399,1.6
			c0.101,0.5,0.3,1.3,0.5,2.4L141,183.1l0.2,0.2c0.199,0.2,0.3,0.6,0.399,1.2c0,0.3,0,0.6,0.101,0.699c0.8,4.7,2.899,12.2,6.1,22.4
			c0,0.1,0.1,0.4,0.2,0.9c0.2,1.399,0.8,2.199,1.5,2.199c0.6,0,1.6-0.199,1.6-1.8l-0.1-1.8c0.3-0.8,0.5-2.2,0.5-4.1l-0.101-1.801
			V195l0.101-0.2v-0.101c-0.101-0.6-0.101-1-0.101-1.3l0.101-15.6c0.1-0.3,0.2-0.9,0.2-1.601V174.5c0-0.601,0.1-1.101,0.3-1.5v-0.2
			C151.8,170.9,151.2,170.6,150.7,170.6z"/>
		<path fill="#3E3D40" d="M169.1,209.6c-0.8-2.2-1.899-6-3.399-11.3c-1.4-5.2-2.7-9.3-3.801-12.1l0.2-0.2l-0.3-0.601
			c0.1-0.699,0.6-2,1.4-4c0.399-1,0.8-1.8,1.1-2.6c0.3-0.7,0.7-1.6,1.2-2.6s0.7-1.601,0.8-1.801c0.1-0.199,0.3-0.5,0.6-1.1
			c0.4-0.6,0.601-1.2,0.7-1.9c0-0.699-0.399-1.1-1.2-1.1c-0.399,0-1.1,0-3.8,7.1c-0.1,0.301-0.8,1.9-1.899,4.601
			c-0.801,1.899-1.4,3.5-2,4.8l0.199-9.1c0-2.801-0.1-4.4-0.3-5c-0.1-0.5-0.3-0.801-0.5-0.9s-0.399-0.1-0.8-0.1s-1.2,0.1-1.2,1.399
			l0.4,2.4l0.3,17.899c0,1.5-0.1,3.801-0.3,6.9s-0.3,5.4-0.3,6.9c0,0.699,0,2.6,1.199,2.6c1.2,0,1.4-2,1.4-3.5l-0.2-10.9
			c0-1.699,0-2.899,0.101-3.399c0.1-0.5,0.399-1.3,0.899-2.3c0.4-0.7,0.7-1.2,0.9-1.601c1,2.101,2.1,5.3,3.3,9.5
			c1.3,4.7,2.3,9,2.9,12.8v0.2l0.899,0.3h0.101c0.8,0,1.3-0.399,1.3-1.3H169.1L169.1,209.6z"/>
	</g>
</g>
</svg>
