<?xml version="1.0" encoding="utf-8"?>
<!-- Generator: Adobe Illustrator 14.0.0, SVG Export Plug-In . SVG Version: 6.00 Build 43363)  -->
<!DOCTYPE svg PUBLIC "-//W3C//DTD SVG 1.1//EN" "http://www.w3.org/Graphics/SVG/1.1/DTD/svg11.dtd">
<svg version="1.1" id="Calque_1" xmlns="http://www.w3.org/2000/svg" xmlns:xlink="http://www.w3.org/1999/xlink" x="0px" y="0px"
	 width="212.6px" height="212.6px" viewBox="0 0 212.6 212.6" style="enable-background:new 0 0 212.6 212.6;" xml:space="preserve"
	>
<style type="text/css">
<![CDATA[
	.st0{fill:#3E3D40;}
]]>
</style>
<path class="st0" d="M54.7,108.5c-1.4,1.5-1.8,2.4-3.5,2.5c-4.6,0.4-5.5-7.5-1.7-8.4C52.9,101.9,55.2,104.8,54.7,108.5z"/>
<path class="st0" d="M167.5,108.5c-1.4,1.5-1.8,2.4-3.5,2.5c-4.6,0.4-5.5-7.5-1.7-8.4C165.7,101.9,168,104.8,167.5,108.5z"/>
<g>
	<path class="st0" d="M96.9,114.8c0-0.3,0-1.1,0-2.3c0-1.3-0.1-3.7-0.3-7.3c-0.2-3.6-0.3-6.2-0.3-7.6c0-1.5,0-3,0.1-4.6
		c0-0.2-0.1-0.3-0.2-0.5c-0.2-0.2-0.3-0.3-0.5-0.3c-0.8,0-1.1,0.5-1.1,0.8l0,0.1l0.1,0.2c0,0.9-0.2,2.1-0.6,3.6
		c-0.2,0.8-0.5,2.5-1,5.3c-0.5,2.8-0.8,4.5-1,5.2l-0.5,2.5c-0.1,0.7-0.2,1.2-0.3,1.7c0-0.2-0.1-0.4-0.1-0.7
		c-0.1-0.4-0.2-0.8-0.2-1.2c-0.1-0.3-0.2-0.9-0.4-1.6c-0.2-0.8-0.4-1.9-0.7-3.5c-2.4-11.6-3-11.7-3.4-11.7l-0.1,0l-0.9,0.5l0,0.2
		c0,0.7,0,1.7,0,3.1l-0.1,8.6l0.1,7.3l-0.2,6c0,1.4,0.4,2.1,1.3,2.1h0.1l0.1-0.1c0.2-0.2,0.4-0.6,0.4-1.1l-0.2-3.4L87,104.4
		c0-2,0-3.9,0.1-5.7c0.3,1.1,0.6,2.9,1.3,5.8c1,4.7,1.5,7.3,1.6,7.8c0.1,0.5,0.1,0.9,0.1,1.2c0,2.1,0.4,3,1.1,3c0.9,0,1.2-1.5,1.2-2
		c0.1-0.5,0.1-0.8,0.2-0.9l0-0.1l-0.1-0.2c0-0.2,0.1-0.5,0.3-1c0.1-0.2,0.2-0.4,0.2-0.6c0.6-2,1.1-4.3,1.5-6.7
		c0.3-1.7,0.6-3.1,0.7-4.3c0,0,0,0.1,0,0.1l-0.1,4.1l0.3,11.8c0,0.8,0,1.9-0.1,3.3l0,0.1l0.1,0.3c-0.1,0.1-0.1,0.3-0.1,0.4v0.3
		l0.8,0.3v0.1l0.2-0.1l0,0l0.2-0.1c0.5-0.2,0.7-0.9,0.7-2.2c0-1.2,0-2.1-0.1-2.9C96.9,115.6,96.9,115,96.9,114.8z"/>
	<path class="st0" d="M104.5,118.8C104.5,118.8,104.5,118.8,104.5,118.8l-1.9,0.1v-0.1c0-0.5-0.1-0.9-0.2-1.1v-7.2l0.1-0.2l-0.3-3.1
		c0-0.4,0.6-0.4,1.1-0.4l0.8,0c0.2,0,0.8-0.1,0.8-1c0-0.2-0.1-0.4-0.3-0.6c-0.2-0.2-0.4-0.3-0.6-0.3l-1.8,0.3l0.2-4.4l-0.3-6.1
		c0-0.2,0.4-0.2,0.5-0.2l1,0.1c1.3,0,1.6-0.5,1.6-0.9c0-0.2-0.1-0.4-0.2-0.6c-0.1-0.2-0.5-0.3-1.1-0.3l-0.1-0.1l-2.7,0.3l-0.8,1.2
		l0,0.1c0,0.4,0.1,1,0.3,1.9c0.1,0.8,0.2,1.5,0.2,1.9l-0.2,7.2l0.2,7.7l-0.2,3.7c0,0.6,0,1.1,0.1,1.6l-0.3,1.4
		c0,0.3,0.1,0.5,0.3,0.7c0.2,0.2,0.5,0.3,2,0.3h0.8c0.5,0,1-0.1,1.5-0.2c0.6-0.1,1-0.4,1.2-0.8l0-0.1
		C106.5,118.9,105.4,118.8,104.5,118.8z"/>
	<path class="st0" d="M118.7,92c-0.8,0-1,0.4-1.1,0.7l0,0.1l0,0.1c0.1,0.5,0.1,1.5,0.2,2.8l-0.1,0.3l-0.1,0.1l0.2,0.1
		c0,0,0,0.1,0,0.3l-0.1,1.4l0.1,5.6l-0.1,12.5c0,0.5,0,0.9-0.1,1.2c-0.1-0.2-0.2-0.5-0.2-0.9c-0.1-0.7-0.2-1.2-0.4-1.5
		c0-0.6-0.2-1.5-0.6-2.8c-0.2-0.6-0.3-1.2-0.4-1.6c-0.1-0.4-0.3-1.3-0.7-2.6c-0.4-1.3-0.7-2.5-1-3.6c-0.3-1.1-0.5-1.9-0.6-2.6
		c-0.1-0.6-0.2-1.4-0.3-2.2c-0.1-0.9-0.2-1.5-0.3-1.9c-0.1-0.4-0.3-0.8-0.5-1.3c-0.2-0.5-0.3-0.9-0.4-1.2c-0.1-0.4-0.1-0.7-0.1-1
		c0-0.4-0.1-0.7-0.4-0.9c-0.5-0.4-1.2-0.3-1.6-0.1c-0.2,0.1-0.4,0.4-0.4,0.8l0,0.7l-0.3,6.8v4.7l0.4,12.5c0,1,0,1.3-0.1,1.4l0,0.1
		l0.2,0.5h1.1l0.4-0.4V120c0-1.1-0.1-2.9-0.2-5.2c-0.2-2.3-0.2-4-0.2-5.1v-9.9c0-1.1,0.1-1.9,0.2-2.4l0-0.1l0-0.1
		c0-0.1-0.1-0.2-0.1-0.5c0.1,0.3,0.2,0.6,0.2,1l0.3,1.2c0.1,0.3,0.2,0.9,0.3,1.8l-0.1,0.3l0.1,0.1c0.2,0.2,0.2,0.4,0.3,0.9
		c0,0.2,0,0.4,0.1,0.5c0.6,3.4,2.1,8.9,4.4,16.2c0,0,0.1,0.3,0.1,0.7c0.2,1,0.5,1.6,1.1,1.6c0.4,0,1.2-0.2,1.2-1.3l-0.1-1.3
		c0.2-0.6,0.3-1.6,0.3-3l-0.1-1.3v-4.5l0.1-0.2l0-0.1c0-0.4-0.1-0.7-0.1-0.9l0.1-11.3c0.1-0.2,0.1-0.6,0.1-1.1l0-1.2
		c0-0.5,0.1-0.8,0.2-1.1l0-0.1C119.5,92.2,119,92,118.7,92z"/>
	<path class="st0" d="M132.7,112.7l-0.2-0.2l-0.1-2.5c0-0.3,0-0.6,0-0.7l0-0.2l-0.2,0l-0.2-6.1l-0.4-6.4l0.3-2.2l-0.1-0.3l0.1-0.3
		l-0.8-0.8h-0.1c-0.2,0-0.5,0.1-0.7,0.2c-0.2,0.1-0.4,0.4-0.4,0.7l0.3,6.1c0,0.7-0.1,1.4-0.2,2l0,0.1l0.2,0.2l0.2,6.9l0.2,2.1l0,4.1
		l-0.1,1.2c0,0.1,0,0.3,0,0.3c0,0.1,0,0.3,0,0.6c0,0.3,0,0.6-0.1,0.7c0,0.1-0.1,0.3-0.1,0.6c-0.1,0.3-0.2,0.4-0.2,0.4
		c-0.1,0.1-0.2,0.2-0.4,0.3c-0.1,0.1-0.4,0.1-0.9,0.1c-0.4,0-0.8-0.2-1.3-0.7c-0.5-0.5-1-1.1-1.3-1.9c-0.4-0.7-0.7-1.5-0.9-2.2
		c-0.2-0.8-0.3-1.3-0.3-1.6c0-0.3,0-0.6,0.1-1c-0.1-0.5-0.2-1.5-0.3-3.2c0-0.5-0.1-0.7-0.2-0.9L124.4,96c0-1.2-0.1-2.9-1.1-2.9
		c-0.2,0-0.4,0.1-0.6,0.3c-0.2,0.2-0.2,0.4-0.2,0.7l0.2,0.7c0,1.9,0.1,4.8,0.4,8.6c0.2,3.8,0.4,6.6,0.4,8.6l0,0.1
		c0.2,0.5,0.5,1.5,0.8,3.1c0.1,0.6,0.3,1.3,0.5,2.1c0.2,0.7,0.5,1.4,0.8,1.9c0.3,0.6,0.8,1.1,1.4,1.4c0.6,0.4,1.3,0.6,2,0.6
		c0.7,0,1.3-0.2,1.8-0.5c0.5-0.3,0.8-0.7,1-1.1c0.5-1,0.8-2.5,0.8-4.6l0-2.2L132.7,112.7z"/>
</g>
</svg>
