<?xml version="1.0" encoding="utf-8"?>
<!-- Generator: Adobe Illustrator 14.0.0, SVG Export Plug-In . SVG Version: 6.00 Build 43363)  -->
<!DOCTYPE svg PUBLIC "-//W3C//DTD SVG 1.1//EN" "http://www.w3.org/Graphics/SVG/1.1/DTD/svg11.dtd">
<svg version="1.1" id="Calque_1" xmlns="http://www.w3.org/2000/svg" xmlns:xlink="http://www.w3.org/1999/xlink" x="0px" y="0px"
	 width="212.6px" height="212.6px" viewBox="0 0 212.6 212.6" style="enable-background:new 0 0 212.6 212.6;" xml:space="preserve"
	>
<style type="text/css">
<![CDATA[
	.st0{fill:#3E3D40;}
]]>
</style>
<g>
	<path class="st0" d="M66.7,92.9c-0.7-0.4-1.5-0.6-2.4-0.6c-0.5,0-0.9,0.2-1.1,0.6L63.1,93l0,0.1c0.1,0.6,0.3,1.4,0.3,2.3
		c0,0.3,0,0.7,0,1.3s0.1,1.7,0.1,3.5c0.1,1.7,0.1,3.9,0.1,6.6l0.3,5.8l-0.1,6.5c0,0.4,0,1.5,0.7,1.5c0.5,0,0.7-0.2,0.8-0.4
		c0.1-0.2,0.2-0.5,0.2-0.9l-0.3-11.7c0.2-0.1,0.4-0.2,0.6-0.4c0.1-0.1,0.2-0.2,0.6-0.3c1-0.4,1.9-1.6,2.6-3.5
		c0.5-1.5,0.8-2.9,0.8-4.4c0-1.4-0.4-2.9-1.3-4.3C68,93.9,67.4,93.3,66.7,92.9z M68.3,99.3c0,2.3-0.8,4.2-2.3,5.7
		c0,0-0.1,0.1-0.3,0.3c-0.1,0.1-0.2,0.2-0.3,0.3c0,0-0.1,0.1-0.2,0.1l-0.4-11.8h0.3c0.1,0.1,0.3,0.2,0.7,0.5c0.4,0.3,0.8,0.6,1,0.8
		c0.2,0.2,0.5,0.5,0.8,0.9c0.3,0.4,0.5,0.9,0.6,1.3C68.2,97.8,68.3,98.4,68.3,99.3z"/>
	<path class="st0" d="M81,98.2c-0.2-1.6-0.4-2.6-0.6-3c-0.2-0.4-0.4-0.9-0.8-1.3c-0.3-0.4-0.5-0.7-0.7-0.9c-0.6-0.5-1.4-0.8-2.3-0.8
		c-1,0-1.7,0.3-2.3,0.9c-0.2,0.3-0.4,0.6-0.6,1c-0.2,0.4-0.3,0.8-0.4,1.1c-0.1,0.4-0.1,0.8-0.2,1.3c0,0.5-0.1,0.9-0.1,1.2l0,1.2
		c0,0.4-0.1,1.4-0.2,3c-0.1,1.5-0.2,2.9-0.2,4.1c0,1.2,0.1,2.6,0.2,4.3c0.1,1,0.2,1.9,0.4,2.9c0.1,0.9,0.3,1.9,0.6,2.8
		c0.3,1,0.6,1.8,0.9,2.5c0.3,0.7,0.8,1.3,1.3,1.8c0.5,0.5,1.2,0.7,1.8,0.7c0.7,0,1.3-0.3,1.8-0.9c0.5-0.6,0.9-1.2,1.2-1.9
		c0.3-0.7,0.4-1.4,0.4-2.1c0-0.6,0.1-1.3,0.3-2.1l0-0.1l-0.1-0.2l0.3-4.6C81.8,106,81.5,102.3,81,98.2z M80.3,108.5v0.9
		c0,0.5,0,1.7-0.1,3.5c-0.1,1.3-0.3,2.8-0.7,4.4c-0.3,1.5-0.9,2.3-1.5,2.3c-0.5,0-1-0.4-1.4-1.1c-0.5-0.8-0.9-1.8-1.1-3
		c-0.3-1.2-0.5-2.7-0.8-4.6c-0.3-1.9-0.4-3.7-0.4-5.3V104c0-8.6,1.3-10.4,2.4-10.4c0.7,0,1.2,0.4,1.7,1.2c0.2,0.4,0.5,0.9,0.6,1.4
		c0.2,0.5,0.3,1.1,0.5,1.8c0.1,0.7,0.3,1.4,0.4,2c0.1,0.6,0.2,1.3,0.2,2.1c0.1,0.8,0.1,1.5,0.1,2c0,0.5,0.1,1.2,0.1,1.9l0,1.5
		C80.3,107.7,80.3,108,80.3,108.5z"/>
	<path class="st0" d="M90.3,111.6c-0.9-3.5-1.4-5.9-1.4-7c0-0.1,0.1-0.3,0.6-1.7c0.7-1.7,1-3.2,1-4.5c0-0.4-0.1-1-0.3-1.7
		c-0.1-0.3-0.2-0.8-0.4-1.4c-0.2-0.7-0.5-1.3-1.1-1.9c-0.6-0.6-1.4-0.9-2.4-0.9c-0.8,0-1,0.3-1,0.6l0.1,0.6l-0.1,25.8l-0.1,0.1
		l0,0.1c0,0.2,0.1,0.5,0.3,0.6c0.2,0.2,0.4,0.2,0.6,0.2c0.6,0,0.9-0.4,0.9-1l-0.1-0.9v-13.3l0.4-0.2l0.1,0.1
		c0.2,0.9,0.5,2.2,0.8,3.8c0.3,1.7,0.5,2.9,0.7,3.4c0.1,0.6,0.5,1.7,1,3.4c0.5,1.6,0.8,2.9,0.9,3.9l0,0.1l0.1,0.1
		c0,0,0.1,0.2,0.3,0.3c0.2,0.3,0.5,0.4,0.8,0.4c0.7,0,0.7-1.1,0.7-1.5C92,117.6,91.2,115.1,90.3,111.6z M88.8,98.9
		c0,0.4-0.1,1-0.2,1.7c-0.1,0.6-0.2,1.1-0.4,1.4c-0.2,0.3-0.5,0.7-0.9,1.1c-0.3,0.3-0.5,0.5-0.6,0.6c0-0.5-0.1-1.1-0.1-2l0.2-7.5
		h0.1c0.3,0,0.6,0.2,0.9,0.5c0.3,0.4,0.5,0.8,0.6,1.3c0.1,0.6,0.2,1.1,0.3,1.6S88.8,98.5,88.8,98.9z"/>
	<path class="st0" d="M102,92.8c-0.2-0.2-0.4-0.2-0.7-0.2c-0.9,0-2.2,0.1-3.8,0.3c-2.2,0.3-2.6,0.6-2.6,1c0,0.3,0.1,0.5,0.4,0.7
		c0.2,0.1,0.4,0.2,0.7,0.2c0,0,0,0,0,0l2-0.2c0.1,0,0.4,0.4,0.4,3.5l0,3.4c0,1.3,0.1,3.2,0.3,5.8c0.2,2.5,0.3,4.5,0.3,5.7l-0.3,5.9
		c0,0.3,0.1,0.7,0.2,1c0.2,0.5,0.5,0.7,0.8,0.7c0.6,0,0.9-0.6,0.9-1.7l-0.2-8.4c0-0.3,0-0.7,0.1-1l0-0.1l0-0.1
		c-0.3-1.2-0.5-3.3-0.5-6l0.1-4.4c0-1.6-0.1-3.1-0.3-4.6c0-0.1,0.2-0.2,0.5-0.2l1.4,0.1c0.8,0,0.9-0.5,0.9-0.8
		C102.3,93.3,102.3,93.1,102,92.8z"/>
	<path class="st0" d="M109,104.5c-0.2,0-0.6,0.1-1.2,0.2c-0.4,0.1-0.7,0.2-0.9,0.2c0-1.2-0.1-2.8-0.3-5c-0.2-2.3-0.3-4-0.3-5.2
		c0-0.2,0-0.6,1.1-0.6l0.9,0c0.8,0,0.9-0.4,0.9-0.6c0-0.9-0.5-1.1-0.8-1.1c-2.6,0-3.8,0.5-3.8,1.5v0.3l0.1,0.1
		c0.2,0.3,0.6,2.1,0.6,11.1c0,1.2,0.1,3,0.2,5.4c0.2,2.4,0.2,4.2,0.2,5.4l0,1.2c0,1.9,0.3,2.7,0.9,2.7c0.9,0,1-0.6,1-0.9
		c0-0.2,0-0.3-0.1-0.5l0.1-0.1l0-0.1c0-1.4-0.1-3.4-0.3-6.1c-0.2-2.7-0.3-4.7-0.3-6.1c0,0,0.1-0.1,0.5-0.2c0.5,0,1-0.1,1.5-0.2
		c0.8-0.1,1-0.5,1-0.8c0-0.2-0.1-0.4-0.2-0.6C109.6,104.6,109.3,104.5,109,104.5z"/>
	<path class="st0" d="M120.8,98.2c-0.2-1.6-0.4-2.6-0.6-3c-0.2-0.4-0.4-0.9-0.8-1.3c-0.3-0.4-0.5-0.7-0.7-0.9
		c-0.6-0.5-1.4-0.8-2.3-0.8c-1,0-1.7,0.3-2.3,0.9c-0.2,0.3-0.4,0.6-0.6,1c-0.2,0.4-0.3,0.8-0.4,1.1c-0.1,0.4-0.1,0.8-0.2,1.3
		c0,0.5-0.1,0.9-0.1,1.2l0,1.2c0,0.4-0.1,1.4-0.2,3c-0.1,1.5-0.2,2.9-0.2,4.1c0,1.2,0.1,2.6,0.2,4.3c0.1,1,0.2,1.9,0.4,2.9
		c0.1,0.9,0.3,1.9,0.6,2.8c0.3,1,0.6,1.8,0.9,2.5c0.3,0.7,0.8,1.3,1.3,1.8c0.5,0.5,1.2,0.7,1.8,0.7c0.7,0,1.3-0.3,1.8-0.9
		c0.5-0.6,0.9-1.2,1.2-1.9c0.3-0.7,0.4-1.4,0.4-2.1c0-0.6,0.1-1.3,0.3-2.1l0-0.1l-0.1-0.2l0.3-4.6C121.7,106,121.4,102.3,120.8,98.2
		z M120.1,108.5v0.9c0,0.5,0,1.7-0.1,3.5c-0.1,1.3-0.3,2.8-0.7,4.4c-0.3,1.5-0.9,2.3-1.5,2.3c-0.5,0-1-0.4-1.4-1.1
		c-0.5-0.8-0.9-1.8-1.1-3c-0.3-1.2-0.5-2.7-0.8-4.6c-0.3-1.9-0.4-3.7-0.4-5.3V104c0-8.6,1.3-10.4,2.4-10.4c0.7,0,1.2,0.4,1.7,1.2
		c0.2,0.4,0.5,0.9,0.6,1.4c0.2,0.5,0.3,1.1,0.5,1.8c0.1,0.7,0.3,1.4,0.4,2c0.1,0.6,0.2,1.3,0.2,2.1c0.1,0.8,0.1,1.5,0.1,2
		c0,0.5,0.1,1.2,0.1,1.9l0,1.5C120.1,107.7,120.1,108,120.1,108.5z"/>
	<path class="st0" d="M129.9,118.6l-1.6,0l-0.1,0.1c0,0.1-0.2,0.1-0.5,0.1c-0.4,0-0.5-0.1-0.5-0.1c0,0-0.1-0.1-0.1-0.5
		c0-0.4,0.1-0.5,0.1-0.6l0-0.1l0-0.1c0-0.8-0.1-2.1-0.2-3.9c-0.1-1.9-0.2-3.1-0.2-3.7c0-0.6,0-1.3,0.1-1.9l0-0.1l-0.1-0.1
		c0-0.5,0.1-1,0.1-1.3c0-0.4-0.1-1.3-0.2-2.8c-0.1-1.5-0.2-5-0.2-10.5c0-0.6-0.3-0.9-0.9-0.9c-0.7,0-0.7,0.5-0.7,0.6l0.4,15
		l0.4,10.2l-0.2,1.7c0,0.3,0.1,0.5,0.3,0.7c0.2,0.2,0.4,0.3,0.7,0.3c0.2,0,0.5-0.1,0.7-0.3c0.2-0.2,0.3-0.2,0.3-0.2l1.1,0
		c0.4,0,0.6,0,0.7-0.1c0.3,0.1,0.5,0.1,0.5,0.1c0.2,0,0.7-0.1,0.7-1C130.5,119.1,130.3,118.8,129.9,118.6z"/>
	<path class="st0" d="M137.7,118.3C137.7,118.3,137.7,118.3,137.7,118.3l-1,0.1l0-1.6c0-2.3-0.2-5.8-0.4-10.4
		c-0.3-4.6-0.4-7.7-0.4-9.2c0-1.9,0.1-2.5,0.1-2.7c0.1-0.3,0.2-0.4,0.5-0.4l0.9,0c0.2,0,0.7-0.1,0.7-0.8c0-0.3-0.2-0.8-1.2-0.8
		c-0.4,0-1.1,0.1-2.2,0.3c-1.2,0.3-1.8,0.6-1.8,1.1c0,0.7,0.5,0.8,0.7,0.7l1-0.2c0,0.3,0.1,0.8,0.1,1.8l0,4.2c0,1.2,0.1,3.3,0.2,6.1
		c0.1,2.9,0.2,4.8,0.2,5.7c0,1,0.1,2,0.1,3c0.1,1,0.1,1.8,0.1,2.5c0,0.8-0.3,0.8-0.5,0.8l-0.8,0c-0.9,0-1.1,0.4-1.1,0.7l0,0.1
		c0.2,0.5,0.9,0.8,2.1,0.8c0.2,0.2,0.6,0.3,1.1,0.3h0.1l0.1-0.1c0.2-0.2,0.5-0.3,0.6-0.4l1.2,0.2l0.8-0.6v-0.1
		C138.9,118.7,138.5,118.3,137.7,118.3z"/>
	<path class="st0" d="M150.6,109.2c0-3.2-0.3-6.9-0.9-10.9c-0.2-1.6-0.4-2.6-0.6-3c-0.2-0.4-0.4-0.9-0.8-1.3
		c-0.3-0.4-0.5-0.7-0.7-0.9c-0.6-0.5-1.4-0.8-2.3-0.8c-1,0-1.7,0.3-2.3,0.9c-0.2,0.3-0.4,0.6-0.6,1c-0.2,0.4-0.3,0.8-0.4,1.1
		c-0.1,0.4-0.1,0.8-0.2,1.3c0,0.5-0.1,0.9-0.1,1.2l0,1.2c0,0.4-0.1,1.4-0.2,3c-0.1,1.5-0.2,2.9-0.2,4.1c0,1.2,0.1,2.6,0.2,4.3
		c0.1,1,0.2,1.9,0.4,2.9c0.1,0.9,0.3,1.9,0.6,2.8c0.3,1,0.6,1.8,0.9,2.5c0.3,0.7,0.8,1.3,1.3,1.8c0.5,0.5,1.2,0.7,1.8,0.7
		c0.7,0,1.3-0.3,1.8-0.9c0.5-0.6,0.9-1.2,1.2-1.9c0.3-0.7,0.4-1.4,0.4-2.1c0-0.6,0.1-1.3,0.3-2.1l0-0.1l-0.1-0.2L150.6,109.2z
		 M149.1,108.5v0.9c0,0.5,0,1.7-0.1,3.5c-0.1,1.3-0.3,2.8-0.7,4.4c-0.3,1.5-0.9,2.3-1.5,2.3c-0.5,0-1-0.4-1.4-1.1
		c-0.5-0.8-0.9-1.8-1.1-3c-0.3-1.2-0.5-2.7-0.8-4.6c-0.3-1.9-0.4-3.7-0.4-5.3V104c0-8.6,1.3-10.4,2.4-10.4c0.7,0,1.2,0.4,1.7,1.2
		c0.2,0.4,0.5,0.9,0.6,1.4c0.2,0.5,0.3,1.1,0.5,1.8c0.1,0.7,0.3,1.4,0.4,2c0.1,0.6,0.2,1.3,0.2,2.1c0.1,0.8,0.1,1.5,0.1,2
		c0,0.5,0.1,1.2,0.1,1.9l0,1.5C149.1,107.7,149.1,108,149.1,108.5z"/>
</g>
<path class="st0" d="M54.7,108.3c-1.4,1.5-1.8,2.4-3.5,2.5c-4.6,0.4-5.5-7.5-1.7-8.4C52.9,101.7,55.2,104.6,54.7,108.3z"/>
<path class="st0" d="M167.5,108.3c-1.4,1.5-1.8,2.4-3.5,2.5c-4.6,0.4-5.5-7.5-1.7-8.4C165.7,101.7,168,104.6,167.5,108.3z"/>
</svg>
